<?xml version="1.0" encoding="UTF-8"?>
<svg version="1.1" xmlns="http://www.w3.org/2000/svg" width="512" height="512">
<path d="M0 0 C1.50265552 -0.00445668 1.50265552 -0.00445668 3.03566772 -0.0090034 C6.39641164 -0.01768314 9.7571199 -0.01919804 13.11787415 -0.02069092 C15.52600175 -0.02531961 17.93412862 -0.03034434 20.34225464 -0.03573608 C26.88787495 -0.04885735 33.43348786 -0.05534144 39.97911811 -0.05974674 C44.06897406 -0.06251231 48.15882766 -0.06675025 52.24868202 -0.07125092 C63.5800178 -0.08344156 74.9113517 -0.09374109 86.2426939 -0.09712601 C86.96753504 -0.09734557 87.69237619 -0.09756514 88.43918221 -0.09779136 C89.16572432 -0.09800964 89.89226643 -0.09822791 90.64082497 -0.09845281 C92.11299241 -0.09889627 93.58515984 -0.09934283 95.05732727 -0.09979248 C95.78756789 -0.10001391 96.51780851 -0.10023534 97.27017764 -0.10046348 C109.09687603 -0.10440965 120.92351273 -0.12185907 132.7501873 -0.145152 C144.90254969 -0.16889249 157.05488116 -0.18132909 169.20726711 -0.18249393 C176.02629095 -0.1834092 182.84523442 -0.18912421 189.66423607 -0.20731354 C196.08036949 -0.22436833 202.49639125 -0.22594699 208.91254234 -0.21717453 C211.26429655 -0.21640444 213.61605897 -0.22074313 215.96779251 -0.23063278 C219.1850078 -0.24336594 222.40168452 -0.23746764 225.61889648 -0.22705078 C226.54353075 -0.23510719 227.46816502 -0.24316359 228.42081851 -0.25146413 C238.34257555 -0.17663333 246.84435496 2.18607319 254.12690735 9.14044189 C261.06207549 16.86159575 262.72688369 23.90444738 262.56440735 34.24200439 C261.6628925 42.27514565 258.06949154 48.71257089 252.18940735 54.20294189 C245.33038492 59.57257659 238.19201291 61.25014449 229.53974915 61.2822876 C228.4681102 61.28932205 227.39647125 61.29635651 226.2923584 61.30360413 C225.14850174 61.3077684 224.00464508 61.31193268 222.8261261 61.31622314 C220.38015393 61.33941962 217.93419036 61.36353689 215.48823547 61.38848877 C211.65036744 61.42358149 207.81281667 61.45294746 203.97480774 61.46636963 C200.25819489 61.48189433 196.54249577 61.52212863 192.8261261 61.56622314 C191.68834213 61.56431473 190.55055817 61.56240631 189.3782959 61.56044006 C182.42530726 61.66650035 177.21634647 62.72104161 171.12690735 66.14044189 C171.12690735 66.80044189 171.12690735 67.46044189 171.12690735 68.14044189 C171.45690735 68.47044189 171.78690735 68.80044189 172.12690735 69.14044189 C172.51753235 71.83966064 172.51753235 71.83966064 172.12690735 75.14044189 C170.4181882 77.370615 168.90363239 79.0731931 166.87690735 80.95294189 C166.38577454 81.44214111 165.89464172 81.93134033 165.3886261 82.43536377 C162.80142959 84.92942121 160.77587468 86.74948111 157.12690735 87.14044189 C157.55266241 89.37188154 157.99301121 91.60053965 158.43940735 93.82794189 C158.68304016 95.06930908 158.92667297 96.31067627 159.1776886 97.58966064 C160.07859395 100.95971401 161.25818792 103.23528984 163.12690735 106.14044189 C163.12690735 106.80044189 163.12690735 107.46044189 163.12690735 108.14044189 C164.36440735 108.44981689 164.36440735 108.44981689 165.62690735 108.76544189 C169.42129615 110.25609464 172.04481012 112.17088589 175.19721985 114.70294189 C179.41107309 117.84200665 182.40774351 118.39139778 187.69078064 118.39872742 C188.34867816 118.40240312 189.00657569 118.40607883 189.6844095 118.40986592 C191.88748912 118.41984055 194.09031606 118.41569617 196.29341125 118.41168213 C197.87381763 118.41606968 199.45422169 118.42137195 201.03462219 118.42752075 C204.43840067 118.43902268 207.84211687 118.44448034 211.24591446 118.44540215 C216.63423057 118.44734376 222.02241822 118.46540381 227.41069031 118.48616028 C240.79921441 118.53534407 254.18777354 118.56619225 267.57637024 118.58746338 C277.97276292 118.60400907 288.36904576 118.62689959 298.765365 118.67048413 C304.11489172 118.6921993 309.46420949 118.70032394 314.81377721 118.69809139 C318.15323601 118.69976572 321.49256009 118.71386131 324.83197021 118.73130417 C326.37259307 118.73687368 327.91324422 118.73741677 329.45386887 118.73236656 C342.06354727 118.69538839 351.6265903 119.50814215 360.9198761 128.64044189 C367.5776136 136.18194987 369.06080721 143.48853512 368.54096985 153.36309814 C367.59884333 161.95778066 363.55882297 168.40877516 357.12690735 174.14044189 C351.20403759 177.90756127 345.98831024 179.26318334 338.96846008 179.31402588 C337.87999031 179.3240564 337.87999031 179.3240564 336.76953125 179.33428955 C335.19319776 179.34833611 333.61684398 179.36023143 332.04047966 179.37023735 C329.5380514 179.38668318 327.03577117 179.40992689 324.53341675 179.43513489 C317.41809015 179.50578021 310.30270048 179.56575858 303.18721008 179.61724854 C298.83293808 179.64923528 294.47883263 179.69056752 290.12469673 179.73744392 C288.47229607 179.7533568 286.81985705 179.76572716 285.16740227 179.77435112 C266.84216065 179.67879191 266.84216065 179.67879191 251.12690735 188.14044189 C245.11119508 194.72294504 242.28762204 201.21347111 242.12690735 210.14044189 C242.75360681 218.09256171 246.26192516 225.73223033 252.27534485 231.03497314 C258.83620918 235.63653499 265.17618056 237.37372428 273.20503235 237.41387939 C274.54488429 237.43417893 275.88472797 237.4550299 277.2245636 237.47637939 C279.29543596 237.49884111 281.36597782 237.51541081 283.43696594 237.52130127 C294.25929625 237.5729715 305.31257773 238.3170093 313.5605011 246.18731689 C319.06698245 253.05325374 322.68049833 261.26948401 322.12690735 270.14044189 C321.04836705 278.60197967 318.40604811 285.24573832 312.12690735 291.14044189 C305.62750243 295.81527942 300.45237502 298.23545663 292.4042511 298.35137939 C291.04681786 298.37948172 289.68939617 298.40814634 288.33198547 298.43731689 C286.20837657 298.47827273 284.08497526 298.51518405 281.96113586 298.54180908 C270.37306593 298.69941444 259.24659389 299.12571388 250.5370636 307.70684814 C244.84763885 313.9248747 243.1560244 319.23723431 242.18940735 327.51544189 C240.95648133 337.60753795 237.94636768 345.34284285 230.12690735 352.14044189 C222.45621619 356.97058024 215.83398274 358.29096439 206.84829712 358.28088379 C205.6029054 358.28534047 205.6029054 358.28534047 204.33235425 358.28988719 C201.55202902 358.29855434 198.77174696 358.30008076 195.9914093 358.30157471 C193.99706938 358.30620431 192.00273034 358.31122916 190.00839233 358.31661987 C184.59083471 358.32973277 179.17328948 358.33618675 173.75571847 358.34063053 C170.36940294 358.34356324 166.98309079 358.34766845 163.59677696 358.3521347 C152.99707661 358.36580715 142.39738399 358.37547486 131.79767543 358.3793366 C119.57077725 358.38381587 107.34399093 358.40135885 95.11712676 358.43033719 C85.66047001 358.45197027 76.2038447 358.46204176 66.74716347 358.46337771 C61.10184851 358.46442464 55.45663874 358.47030847 49.81134987 358.48819733 C44.49831468 358.50470589 39.18546346 358.50681993 33.87241173 358.49805832 C31.92702109 358.49728942 29.98162045 358.50161116 28.03625488 358.51151657 C2.8688482 358.63210448 2.8688482 358.63210448 -6.68559265 349.38653564 C-12.99135715 342.67352385 -14.74490101 336.7580156 -15.74809265 327.76544189 C-16.972964 317.82817917 -19.91650962 310.87040477 -27.8223114 304.54278564 C-34.55573378 299.9384073 -41.39999667 298.98787441 -49.41044617 299.03033447 C-50.94833376 299.02979195 -52.48622133 299.02920496 -54.02410889 299.02857971 C-54.83463274 299.03000788 -55.64515659 299.03143604 -56.48024178 299.03290749 C-60.80461341 299.03644973 -65.12885862 299.01059156 -69.45317078 298.99005127 C-74.9413182 298.96578811 -80.42908866 298.94995856 -85.9172821 298.96539307 C-90.3649004 298.97712981 -94.81158842 298.95945746 -99.25906181 298.92294884 C-100.94331299 298.91439675 -102.62765464 298.91631583 -104.3118763 298.9294529 C-115.5237267 299.01033144 -124.98346989 298.18093979 -133.85870361 290.39955139 C-135.4531891 288.74481904 -136.65389811 287.08630868 -137.87309265 285.14044189 C-138.28301453 284.51911377 -138.6929364 283.89778564 -139.11528015 283.25762939 C-143.04868247 276.12325139 -142.79815764 268.01535414 -141.87309265 260.14044189 C-140.67679705 256.4144303 -139.07150112 253.36477432 -136.87309265 250.14044189 C-135.97590515 248.74825439 -135.97590515 248.74825439 -135.06059265 247.32794189 C-128.7073845 240.97473374 -121.17529069 237.95582624 -112.15214539 237.86146545 C-111.46209412 237.8640184 -110.77204285 237.86657135 -110.06108093 237.86920166 C-109.31373688 237.86397491 -108.56639282 237.85874817 -107.79640198 237.85336304 C-106.18521835 237.84317915 -104.57400235 237.8373525 -102.96278763 237.83548164 C-100.40562608 237.83179366 -97.848844 237.81500093 -95.29176331 237.79472351 C-88.02548809 237.73954492 -80.75915813 237.7086733 -73.49272156 237.68414307 C-69.03654848 237.6681987 -64.58064662 237.63791079 -60.12461472 237.59937859 C-58.43510203 237.58779194 -56.74554072 237.58179879 -55.05598831 237.58169746 C-38.1009187 237.61775944 -38.1009187 237.61775944 -23.87309265 229.14044189 C-19.25797057 223.25988312 -15.14884114 215.83714865 -15.87309265 208.14044189 C-17.50477601 206.3328358 -19.24516017 205.20488367 -21.27153015 203.86309814 C-22.87309265 202.14044189 -22.87309265 202.14044189 -23.09965515 199.32403564 C-22.98750671 197.74815674 -22.98750671 197.74815674 -22.87309265 196.14044189 C-22.52466227 191.89679405 -22.52466227 191.89679405 -24.1582489 188.13653564 C-31.68566526 181.53557053 -40.2848561 180.17150505 -49.92778015 179.96466064 C-51.03766296 179.94081299 -52.14754578 179.91696533 -53.2910614 179.89239502 C-55.58774985 179.8495754 -57.88468244 179.81824403 -60.1816864 179.79864502 C-70.26465351 179.54744711 -77.66727442 177.14456442 -85.0801239 170.17559814 C-91.19735504 163.23207434 -93.2727235 155.28351131 -92.87309265 146.14044189 C-91.63705385 138.1003038 -87.9695815 130.62506902 -81.7285614 125.31622314 C-73.65442707 119.63544379 -66.50780454 118.84591697 -56.86405945 118.8850708 C-55.77694672 118.88145035 -54.68983398 118.8778299 -53.56977844 118.87409973 C-51.21702601 118.86722437 -48.86425768 118.8646968 -46.51149559 118.86604691 C-42.78213152 118.86701482 -39.05305354 118.85403779 -35.32373047 118.83706665 C-24.72309118 118.79087664 -14.12250425 118.76611246 -3.52177429 118.75958252 C2.97033004 118.75455798 9.46213499 118.73026064 15.9541378 118.69425583 C18.42154833 118.68448079 20.88900016 118.68211327 23.35642433 118.68742752 C26.81450352 118.69452612 30.27169513 118.67715717 33.72969055 118.65460205 C34.73937393 118.66277451 35.74905731 118.67094696 36.78933716 118.67936707 C45.72583716 118.57616149 53.96328763 116.20922858 60.5917511 109.95684814 C66.17659779 103.34882343 68.53255723 95.73284388 68.12690735 87.14044189 C66.77745621 78.46539886 62.61682599 71.56973856 55.62690735 66.26544189 C48.91424143 61.55999471 41.70088252 61.83302151 33.8261261 61.79669189 C32.63517838 61.78206909 31.44423065 61.76744629 30.2171936 61.75238037 C26.41629881 61.70596977 22.61545489 61.6717302 18.81440735 61.64044189 C13.8181249 61.59914243 8.82220008 61.54538766 3.8261261 61.48419189 C2.68834213 61.47891479 1.55055817 61.4736377 0.3782959 61.46820068 C-10.24212511 61.33642177 -18.60526265 60.19378839 -26.87309265 53.14044189 C-34.45845456 44.99320133 -36.47768889 37.8322205 -36.21684265 26.80059814 C-35.42219217 18.33937658 -31.25462468 11.68802372 -24.87309265 6.14044189 C-16.62965719 0.94965363 -9.54005511 -0.00883351 0 0 Z " fill="#85DDFC" transform="translate(142.8730926513672,76.85955810546875)"/>
<path d="M0 0 C21.34070692 0.06059475 42.6812928 0.13813726 64.02186394 0.23571491 C73.93123179 0.28063174 83.84056403 0.32005589 93.75 0.34643555 C102.38962676 0.36944893 111.02914043 0.40288426 119.66867745 0.44870156 C124.24092594 0.47258874 128.81306275 0.49134701 133.38537216 0.49761391 C137.69460696 0.50368518 142.00355617 0.52375842 146.31268501 0.55427551 C147.88877055 0.56302311 149.46489346 0.56678516 151.04100227 0.56500816 C163.74854623 0.55521015 173.42206629 1.29142813 182.79296875 10.5 C189.45070626 18.04150797 190.93389986 25.34809323 190.4140625 35.22265625 C189.47193598 43.81733877 185.43191562 50.26833326 179 56 C173.07713024 59.76711937 167.86140289 61.12274144 160.84155273 61.17358398 C159.75308296 61.1836145 159.75308296 61.1836145 158.6426239 61.19384766 C157.06629041 61.20789421 155.48993663 61.21978953 153.91357231 61.22979546 C151.41114405 61.24624129 148.90886382 61.26948499 146.4065094 61.29469299 C139.2911828 61.36533831 132.17579314 61.42531669 125.06030273 61.47680664 C120.70603073 61.50879338 116.35192528 61.55012562 111.99778938 61.59700203 C110.34538872 61.61291491 108.6929497 61.62528526 107.04049492 61.63390923 C88.71525331 61.53835002 88.71525331 61.53835002 73 70 C66.98428773 76.58250314 64.16071469 83.07302922 64 92 C64.62669946 99.95211981 68.13501781 107.59178843 74.1484375 112.89453125 C80.70930183 117.49609309 87.04927321 119.23328239 95.078125 119.2734375 C96.41797694 119.29373703 97.75782063 119.31458801 99.09765625 119.3359375 C101.16852861 119.35839921 103.23907047 119.37496891 105.31005859 119.38085938 C116.1323889 119.43252961 127.18567038 120.1765674 135.43359375 128.046875 C140.9400751 134.91281184 144.55359098 143.12904212 144 152 C142.92145971 160.46153777 140.27914076 167.10529643 134 173 C127.50059508 177.67483753 122.32546767 180.09501474 114.27734375 180.2109375 C112.91991051 180.23903982 111.56248883 180.26770444 110.20507812 180.296875 C108.08146922 180.33783084 105.95806791 180.37474216 103.83422852 180.40136719 C92.24615858 180.55897255 81.11968654 180.98527198 72.41015625 189.56640625 C66.7207315 195.78443281 65.02911705 201.09679241 64.0625 209.375 C62.82957398 219.46709606 59.81946034 227.20240096 52 234 C44.32930884 238.83013834 37.70707539 240.1505225 28.72138977 240.14044189 C27.47599805 240.14489858 27.47599805 240.14489858 26.2054469 240.1494453 C23.42512167 240.15811244 20.64483961 240.15963887 17.86450195 240.16113281 C15.87016203 240.16576242 13.87582299 240.17078727 11.88148499 240.17617798 C6.46392736 240.18929088 1.04638213 240.19574486 -4.37118888 240.20018864 C-7.75750441 240.20312135 -11.14381656 240.20722655 -14.53013039 240.21169281 C-25.12983074 240.22536525 -35.72952336 240.23503297 -46.32923192 240.2388947 C-58.5561301 240.24337398 -70.78291641 240.26091696 -83.00978059 240.2898953 C-92.46643734 240.31152837 -101.92306265 240.32159986 -111.37974387 240.32293582 C-117.02505884 240.32398274 -122.67026861 240.32986658 -128.31555748 240.34775543 C-133.62859267 240.364264 -138.94144389 240.36637803 -144.25449562 240.35761642 C-146.19988626 240.35684753 -148.1452869 240.36116927 -150.09065247 240.37107468 C-175.25805915 240.49166259 -175.25805915 240.49166259 -184.8125 231.24609375 C-191.1182645 224.53308196 -192.87180836 218.61757371 -193.875 209.625 C-195.09987135 199.68773728 -198.04341697 192.72996288 -205.94921875 186.40234375 C-212.68264113 181.7979654 -219.52690402 180.84743251 -227.53735352 180.88989258 C-229.0752411 180.88935005 -230.61312868 180.88876306 -232.15101624 180.88813782 C-232.96154009 180.88956598 -233.77206394 180.89099415 -234.60714912 180.89246559 C-238.93152076 180.89600783 -243.25576597 180.87014966 -247.58007812 180.84960938 C-253.06822555 180.82534621 -258.555996 180.80951666 -264.04418945 180.82495117 C-268.49180775 180.83668792 -272.93849577 180.81901556 -277.38596916 180.78250694 C-279.07022034 180.77395485 -280.75456199 180.77587393 -282.43878365 180.789011 C-293.65063404 180.86988954 -303.11037724 180.04049789 -311.98561096 172.2591095 C-313.58009645 170.60437715 -314.78080546 168.94586679 -316 167 C-316.40992188 166.37867188 -316.81984375 165.75734375 -317.2421875 165.1171875 C-321.17558982 157.9828095 -320.92506499 149.87491225 -320 142 C-318.8037044 138.27398841 -317.19840847 135.22433242 -315 132 C-314.1028125 130.6078125 -314.1028125 130.6078125 -313.1875 129.1875 C-306.83429184 122.83429184 -299.30219804 119.81538434 -290.27905273 119.72102356 C-289.58900146 119.72357651 -288.8989502 119.72612946 -288.18798828 119.72875977 C-287.44064423 119.72353302 -286.69330017 119.71830627 -285.92330933 119.71292114 C-284.3121257 119.70273726 -282.7009097 119.69691061 -281.08969498 119.69503975 C-278.53253343 119.69135176 -275.97575135 119.67455904 -273.41867065 119.65428162 C-266.15239544 119.59910302 -258.88606548 119.56823141 -251.61962891 119.54370117 C-247.16345583 119.5277568 -242.70755397 119.49746889 -238.25152206 119.45893669 C-236.56200938 119.44735004 -234.87244807 119.4413569 -233.18289566 119.44125557 C-216.22562616 119.48077099 -216.22562616 119.48077099 -202 111 C-197.07711099 104.59445265 -194.69702516 97.83013364 -193 90 C-186.34580485 92.43500513 -180.73223834 95.7317561 -176 101 C-174.16298056 106.34268874 -173.91516103 111.45406676 -173.75 117.0625 C-173.66535279 118.51528606 -173.57554648 119.96778114 -173.48046875 121.41992188 C-173.26076334 124.94524872 -173.11097966 128.46937981 -173 132 C-168.26470686 133.94688091 -163.54675603 135.8731995 -158.6640625 137.421875 C-157.99246094 137.64359375 -157.32085937 137.8653125 -156.62890625 138.09375 C-155.27625902 138.53672219 -153.91640132 138.95817588 -152.55078125 139.359375 C-148.6922121 140.67803164 -146.66564957 141.90636893 -144.7578125 145.578125 C-144.14009103 147.03904803 -143.55575748 148.51439927 -143 150 C-142.68434082 150.80147461 -142.36868164 151.60294922 -142.04345703 152.42871094 C-141.07681206 154.94091219 -140.15704568 157.46572214 -139.25 160 C-138.77626953 161.30517578 -138.77626953 161.30517578 -138.29296875 162.63671875 C-137.52433073 164.75629631 -136.76010345 166.87735024 -136 169 C-135.12899658 168.99661621 -134.25799316 168.99323242 -133.3605957 168.98974609 C-109.09885146 169.21157878 -109.09885146 169.21157878 -102.33642578 173.81201172 C-98.31527253 177.96692475 -95.6794107 182.73139611 -93.09277344 187.86181641 C-91.31464464 191.34100586 -90.04926553 193.44486753 -87 196 C-83.54706 196.34886283 -80.38476227 195.66831398 -77 195 C-76.00758301 194.85288574 -75.01516602 194.70577148 -73.99267578 194.55419922 C-70.83386917 194.08312738 -67.70267029 193.51915616 -64.5625 192.9375 C-63.48806641 192.77056641 -62.41363281 192.60363281 -61.30664062 192.43164062 C-58.33447513 191.86702235 -55.75315427 191.25451041 -53 190 C-51.1215251 186.91159833 -50.62517262 185.42145925 -50 182 C-49.47460648 179.86832973 -48.94849883 177.73683541 -48.421875 175.60546875 C-47.86023777 173.13379593 -47.30318383 170.6610785 -46.75 168.1875 C-46.13632197 165.48716729 -45.51674161 162.7882224 -44.89453125 160.08984375 C-44.73771378 159.40943024 -44.5808963 158.72901672 -44.41932678 158.02798462 C-42.88122803 151.40301949 -41.17544261 144.82517594 -39.4375 138.25 C-36.83366158 128.38027441 -34.45872078 118.47818289 -32.20776367 108.52246094 C-30.3153369 100.21077517 -28.22384951 91.96341596 -26.00366211 83.73339844 C-25.77042236 82.86231445 -25.53718262 81.99123047 -25.296875 81.09375 C-24.94725708 79.82023682 -24.94725708 79.82023682 -24.59057617 78.52099609 C-23.94779516 76.02136917 -23.94779516 76.02136917 -23.74731445 73.49853516 C-22.81572397 65.05045862 -17.74172903 60.92234448 -11.6875 55.375 C-1.54406089 45.88486714 6.81773492 37.1481616 7.4375 22.625 C7.21846187 14.83819444 4.64818025 8.16649701 0 2 C0 1.34 0 0.68 0 0 Z " fill="#85DDFC" transform="translate(321,195)"/>
<path d="M0 0 C7.80181534 5.60024487 11.98757406 14.19819367 14.25 23.375 C15.61870258 33.23524509 13.03105812 41.79500874 7.16015625 49.73046875 C4.62963921 52.91511737 2.01409119 55.55485659 -1.125 58.13671875 C-15.01070108 69.69577898 -18.19076885 81.46601786 -21.09521484 98.74560547 C-22.03592281 103.95983538 -23.39898231 109.02260063 -24.8125 114.125 C-26.94438127 122.08892428 -28.86700755 130.08444162 -30.6875 138.125 C-33.01957495 148.42146191 -35.57181982 158.64482451 -38.28051758 168.84863281 C-39.58930138 173.797711 -40.86159511 178.733832 -41.90625 183.74609375 C-42.15834229 184.93609985 -42.15834229 184.93609985 -42.41552734 186.15014648 C-42.71019648 187.57699017 -42.98811729 189.00745564 -43.24462891 190.44165039 C-43.88967174 193.55043232 -44.33857964 195.07419177 -46.94482422 196.97973633 C-49.92235318 198.46072658 -52.48642875 199.14852431 -55.75 199.76171875 C-56.884375 199.97763672 -58.01875 200.19355469 -59.1875 200.41601562 C-60.363125 200.62935547 -61.53875 200.84269531 -62.75 201.0625 C-64.5134375 201.39991211 -64.5134375 201.39991211 -66.3125 201.74414062 C-76.44355265 203.63795672 -76.44355265 203.63795672 -80.75 203.375 C-82.3828125 202.1875 -82.3828125 202.1875 -83.875 200.375 C-84.49632812 199.65957031 -85.11765625 198.94414062 -85.7578125 198.20703125 C-87.3965652 195.87743182 -88.42833343 193.95617641 -89.5546875 191.38671875 C-91.90228843 186.53364858 -94.11081402 182.3462904 -98.75 179.375 C-105.37765738 177.67773001 -112.11111356 177.37617136 -118.93164062 177.33081055 C-128.80150695 177.19156329 -128.80150695 177.19156329 -131.50170898 174.86694336 C-132.66567172 172.69527442 -133.24676903 170.78556958 -133.75 168.375 C-133.92313721 167.61848145 -134.09627441 166.86196289 -134.2746582 166.08251953 C-134.62420865 164.51209457 -134.9731536 162.94153473 -135.3215332 161.37084961 C-136.7841649 155.59278773 -138.24340937 150.94732407 -143.48535156 147.65917969 C-149.88347159 144.77253168 -156.53459999 142.81112524 -163.33911133 141.12670898 C-165.75 140.375 -165.75 140.375 -167.75 138.375 C-168.03027344 135.4609375 -168.03027344 135.4609375 -168.109375 131.75 C-167.90219361 116.46567062 -167.90219361 116.46567062 -173.8125 103.23828125 C-177.18565941 100.59145244 -180.7947991 98.99187934 -184.75 97.375 C-192.12372266 93.59191046 -192.12372266 93.59191046 -194.75 90.375 C-195.46207865 82.65951043 -193.77970166 75.4985872 -192.0625 68 C-191.81822266 66.82566406 -191.57394531 65.65132813 -191.32226562 64.44140625 C-191.06767578 63.31863281 -190.81308594 62.19585937 -190.55078125 61.0390625 C-190.32559814 60.02279785 -190.10041504 59.0065332 -189.8684082 57.95947266 C-188.40534196 54.57854726 -187.09076445 53.86382836 -183.75 52.375 C-181.44711683 51.69417158 -179.11670842 51.10336744 -176.7734375 50.578125 C-176.09930817 50.4238504 -175.42517883 50.26957581 -174.73062134 50.11062622 C-173.28348849 49.78009687 -171.83548643 49.45335426 -170.38671875 49.13006592 C-166.53220834 48.26931263 -162.68431447 47.37989211 -158.8359375 46.4921875 C-157.67357574 46.22500412 -157.67357574 46.22500412 -156.48773193 45.9524231 C-149.54072222 44.34693711 -142.64221428 42.57609843 -135.75 40.75 C-123.82405788 37.60440414 -111.83529446 34.80548879 -99.80859375 32.07470703 C-94.99096402 30.97258963 -90.182347 29.8335239 -85.375 28.6875 C-84.57400879 28.49720215 -83.77301758 28.3069043 -82.94775391 28.11083984 C-81.37869377 27.73629001 -79.81222861 27.35070419 -78.24853516 26.9543457 C-75.75 26.375 -75.75 26.375 -72.85693359 25.92651367 C-63.71392703 24.27021441 -59.22436885 19.8278391 -53.125 13.0625 C-38.3265871 -3.00592595 -20.66207401 -12.43870676 0 0 Z " fill="#0D0992" transform="translate(314.75,188.625)"/>
<path d="M0 0 C5.0365522 2.15528135 8.25591789 6.13111515 12 10 C8.16574739 17.89344115 4.05066369 25.5240401 -0.4375 33.0625 C-5.64125962 41.88389878 -10.68138118 50.78046296 -15.625 59.75 C-17.48757065 63.09791789 -19.35331456 66.44404559 -21.22021484 69.78955078 C-22.38983373 71.89935714 -23.54934888 74.01480238 -24.69775391 76.13623047 C-26.25085456 79.00252947 -27.83931373 81.8461653 -29.4375 84.6875 C-29.88496582 85.53731445 -30.33243164 86.38712891 -30.79345703 87.26269531 C-32.05457946 89.45841197 -33.17214816 91.24798771 -35 93 C-38.22378226 93.49983721 -39.90876681 93.5022433 -43 93 C-44.57264538 92.85126971 -46.14557466 92.70551594 -47.71875 92.5625 C-49.31302871 92.37954998 -50.90678776 92.19201581 -52.5 92 C-53.32242188 91.90460938 -54.14484375 91.80921875 -54.9921875 91.7109375 C-56.99526826 91.47802113 -58.99770659 91.23959066 -61 91 C-62.23306628 87.75884824 -63.43199751 84.50608949 -64.625 81.25 C-64.975625 80.32960938 -65.32625 79.40921875 -65.6875 78.4609375 C-66.17089844 77.12675781 -66.17089844 77.12675781 -66.6640625 75.765625 C-67.11966553 74.54020996 -67.11966553 74.54020996 -67.58447266 73.29003906 C-68.13062806 70.28008745 -67.6278032 69.60084757 -66 67 C-63.98115959 64.8064506 -61.9430699 62.70086548 -59.82202148 60.61083984 C-59.18935364 59.97948624 -58.55668579 59.34813263 -57.90484619 58.69764709 C-55.8148215 56.614108 -53.71791763 54.53763193 -51.62109375 52.4609375 C-50.16852467 51.01463877 -48.71646951 49.56782372 -47.26490784 48.12051392 C-43.44396949 44.31287734 -39.61750396 40.51084802 -35.78942871 36.71038818 C-29.65701804 30.62110522 -23.53132779 24.52507966 -17.40883064 18.42583084 C-15.26567154 16.29292165 -13.11914656 14.16344259 -10.97227478 12.03427124 C-9.66426387 10.73308576 -8.35636099 9.43179166 -7.04858398 8.13037109 C-6.44752335 7.53604782 -5.84646271 6.94172455 -5.22718811 6.32939148 C-2.24598764 3.44470817 -2.24598764 3.44470817 0 0 Z " fill="#FDFDFE" transform="translate(251,266)"/>
<path d="M0 0 C1.08839774 0.88967344 2.17044608 1.78711574 3.25 2.6875 C3.85328125 3.18636719 4.4565625 3.68523437 5.078125 4.19921875 C7.31020093 6.29065575 9.10976837 8.59940583 11 11 C2.10753065 20.03131334 -6.80094765 29.04649042 -15.73038769 38.04126072 C-19.8759142 42.21813797 -24.01566049 46.40042832 -28.14282227 50.59545898 C-32.12382888 54.64152016 -36.11919264 58.67287045 -40.12505531 62.69431877 C-41.65297288 64.23334734 -43.17558774 65.77765862 -44.69283104 67.32721138 C-46.81434032 69.4920946 -48.95370633 71.63764776 -51.09838867 73.77954102 C-52.03922554 74.75273537 -52.03922554 74.75273537 -52.99906921 75.74559021 C-54.61016215 77.33406289 -56.1042185 78.76555728 -58 80 C-60.79833984 79.93029785 -60.79833984 79.93029785 -63 79 C-63.70229736 78.78077881 -64.40459473 78.56155762 -65.12817383 78.33569336 C-65.81419678 78.08956299 -66.50021973 77.84343262 -67.20703125 77.58984375 C-68.22373901 77.22814087 -68.22373901 77.22814087 -69.26098633 76.85913086 C-70.10298584 76.55499268 -70.94498535 76.25085449 -71.8125 75.9375 C-74.514375 74.968125 -77.21625 73.99875 -80 73 C-80.66 64.42 -81.32 55.84 -82 47 C-70.68666176 40.29209148 -59.29465685 33.74882464 -47.8359375 27.29296875 C-39.76460608 22.74432865 -31.72546261 18.13962669 -23.68505859 13.53662109 C-18.85399295 10.77187049 -14.02057777 8.01123114 -9.1875 5.25 C-7.41014668 4.23439175 -5.632802 3.21876838 -3.85546875 2.203125 C-2.5703125 1.46875 -1.28515625 0.734375 0 0 Z " fill="#FDFDFE" transform="translate(235,249)"/>
<path d="M0 0 C2.09187631 1.80957182 3.93657355 3.55633566 5.8125 5.5625 C6.56563477 6.34270508 6.56563477 6.34270508 7.33398438 7.13867188 C8.56529127 8.4168857 9.7839407 9.70727147 11 11 C8.11159728 14.13576152 5.28901438 16.15369248 1.546875 18.1796875 C-0.07589355 19.06744873 -0.07589355 19.06744873 -1.73144531 19.97314453 C-2.89256836 20.60075684 -4.05369141 21.22836914 -5.25 21.875 C-7.7106929 23.21967398 -10.16809601 24.57029286 -12.625 25.921875 C-13.2465094 26.26320465 -13.8680188 26.6045343 -14.50836182 26.95620728 C-20.48127121 30.24552689 -26.37196554 33.66925663 -32.25 37.125 C-34.1990955 38.26453376 -36.14831407 39.40385704 -38.09765625 40.54296875 C-41.13386264 42.31870949 -44.16717762 44.0988553 -47.19482422 45.88916016 C-50.35130771 47.75221351 -53.51819436 49.59636576 -56.6875 51.4375 C-58.13141113 52.29915771 -58.13141113 52.29915771 -59.60449219 53.17822266 C-60.50200195 53.69562012 -61.39951172 54.21301758 -62.32421875 54.74609375 C-63.10885498 55.20685303 -63.89349121 55.6676123 -64.7019043 56.14233398 C-67.59356903 57.22152427 -69.08475794 56.9291303 -72 56 C-74.35959362 54.53666468 -76.57604734 53.06559765 -78.8125 51.4375 C-79.40998047 51.01275391 -80.00746094 50.58800781 -80.62304688 50.15039062 C-82.08740533 49.10776741 -83.54445735 48.05489548 -85 47 C-83.40117385 43.8023477 -80.08233474 43.22791669 -76.8984375 41.98046875 C-76.16168289 41.68522308 -75.42492828 41.38997742 -74.66584778 41.08578491 C-73.07082584 40.44726877 -71.47458532 39.81179024 -69.87728882 39.1789856 C-65.66662647 37.51058863 -61.46466731 35.82052559 -57.26171875 34.1328125 C-56.40691422 33.79022903 -55.55210968 33.44764557 -54.67140198 33.09468079 C-46.14061427 29.66966014 -37.65867724 26.13196685 -29.1875 22.5625 C-28.51152771 22.27796967 -27.83555542 21.99343933 -27.13909912 21.70028687 C-23.42474893 20.13663458 -19.71168297 18.56997248 -16 17 C-16 15.35 -16 13.7 -16 12 C-19.77816897 10.98887082 -21.89127923 10.98724478 -25.48876953 12.50366211 C-26.34802032 12.85831039 -27.20727112 13.21295868 -28.09255981 13.57835388 C-29.0133432 13.97402054 -29.93412659 14.36968719 -30.8828125 14.77734375 C-32.3361348 15.38359337 -32.3361348 15.38359337 -33.81881714 16.00209045 C-36.92616507 17.30169082 -40.02552582 18.6192469 -43.125 19.9375 C-45.15705031 20.7909093 -47.18959817 21.6431349 -49.22265625 22.49414062 C-57.04603661 25.77464077 -64.85676336 29.08451727 -72.65917969 32.41455078 C-73.98029251 32.97620689 -73.98029251 32.97620689 -75.32809448 33.54920959 C-76.98122209 34.25216783 -78.63308832 34.95810227 -80.28347778 35.66746521 C-85.77495675 38 -85.77495675 38 -88 38 C-87.4560071 33.32166107 -86.52998591 28.81857248 -85.45703125 24.23046875 C-85.18479736 23.06281982 -84.91256348 21.8951709 -84.63208008 20.69213867 C-84.31920044 19.35953003 -84.31920044 19.35953003 -84 18 C-83.35377686 17.8548999 -82.70755371 17.7097998 -82.04174805 17.56030273 C-69.47631973 14.72764668 -56.95640391 11.78146193 -44.5 8.5 C-35.23067002 6.07068879 -25.94824787 3.7143368 -16.625 1.5 C-15.53123047 1.23251953 -14.43746094 0.96503906 -13.31054688 0.68945312 C-12.29283203 0.45162109 -11.27511719 0.21378906 -10.2265625 -0.03125 C-9.33533691 -0.24330078 -8.44411133 -0.45535156 -7.52587891 -0.67382812 C-4.69293261 -1.03965224 -2.72842177 -0.83100433 0 0 Z " fill="#F9F9FC" transform="translate(218,231)"/>
<path d="M0 0 C1.69589455 1.41491793 3.3755615 2.8438578 5.0390625 4.296875 C6.28163801 5.37608401 7.54543679 6.43170741 8.8359375 7.453125 C10.52301697 8.89466708 11.77015437 10.15235619 13 12 C12.65410712 17.76269139 11.34886971 23.27876269 9.99609375 28.87890625 C9.79701416 29.71687241 9.59793457 30.55483856 9.39282227 31.41819763 C8.74580651 34.13412821 8.09205943 36.84837844 7.4375 39.5625 C6.98769347 41.43944878 6.53790521 43.31640194 6.08813477 45.19335938 C3.29347248 56.81827019 0.42162551 68.42226738 -2.5625 80 C-2.73194122 80.65920441 -2.90138245 81.31840881 -3.07595825 81.99758911 C-5.8173361 92.63467221 -5.8173361 92.63467221 -7 95 C-9.44155613 95.80697995 -11.82519005 96.49677391 -14.3125 97.125 C-14.98990234 97.30675781 -15.66730469 97.48851562 -16.36523438 97.67578125 C-19.72201807 98.54861064 -22.50580142 99 -26 99 C-24.02006539 92.78822334 -21.7561803 86.760533 -19.234375 80.75 C-18.87788879 79.89301514 -18.52140259 79.03603027 -18.15411377 78.15307617 C-17.02237478 75.43413699 -15.88633259 72.71702211 -14.75 70 C-14.00360717 68.20976008 -13.25751128 66.41939633 -12.51171875 64.62890625 C-12.14485962 63.74879883 -11.77800049 62.86869141 -11.40002441 61.96191406 C-10.66752678 60.20268769 -9.93631477 58.44292544 -9.2064209 56.68261719 C-7.45573814 52.46498228 -5.68440501 48.25942649 -3.85742188 44.07421875 C-3.52510559 43.30102295 -3.19278931 42.52782715 -2.85040283 41.73120117 C-2.22955426 40.28791085 -1.59864013 38.84889108 -0.95574951 37.4152832 C0.69193578 33.55004014 1.35434872 31.04167194 0 27 C-1.65 27 -3.3 27 -5 27 C-19.0286724 60.48802515 -19.0286724 60.48802515 -33 94 C-33.99 94 -34.98 94 -36 94 C-37.75079402 92.15987976 -39.23660131 90.39445629 -40.75 88.375 C-41.17410156 87.85292969 -41.59820312 87.33085937 -42.03515625 86.79296875 C-44.06546207 84.11455228 -45.03906448 82.55539297 -44.80004883 79.15722656 C-43.94158208 75.76946579 -42.72675568 73.28716128 -40.96484375 70.2734375 C-40.32828857 69.17314209 -39.6917334 68.07284668 -39.03588867 66.93920898 C-38.33652142 65.75108302 -37.63705592 64.56301489 -36.9375 63.375 C-36.21558662 62.13345514 -35.4946558 60.89133848 -34.7746582 59.64868164 C-33.2747392 57.06160217 -31.7705994 54.47704576 -30.26367188 51.89404297 C-27.03623182 46.35312053 -23.86752515 40.77881558 -20.69512939 35.20626831 C-15.67523124 26.39446029 -10.6318083 17.59597173 -5.5625 8.8125 C-4.88030396 7.62708618 -4.88030396 7.62708618 -4.18432617 6.41772461 C-1.11792071 1.11792071 -1.11792071 1.11792071 0 0 Z " fill="#F9F9FC" transform="translate(269,283)"/>
<path d="M0 0 C6.80399613 3.92113413 11.32650137 9.35994907 13.5625 16.9375 C14.56800692 25.81327093 13.40314578 32.87908848 7.9609375 40.046875 C6.54058761 41.72975402 5.0910083 43.35294639 3.5625 44.9375 C0.08562179 44.35460597 -1.55224055 43.19087803 -4.01269531 40.70288086 C-4.69309875 40.02225082 -5.3735022 39.34162079 -6.07452393 38.6403656 C-6.79758728 37.90181839 -7.52065063 37.16327118 -8.265625 36.40234375 C-9.01463074 35.64909317 -9.76363647 34.89584259 -10.53533936 34.11976624 C-12.92652044 31.71178956 -15.30706165 29.29359255 -17.6875 26.875 C-19.30660177 25.24085262 -20.92638532 23.60738045 -22.546875 21.97460938 C-26.51836182 17.97004154 -30.4811621 13.95703193 -34.4375 9.9375 C-29.00901935 3.29217507 -29.00901935 3.29217507 -25.3125 1.125 C-24.64992188 0.72667969 -23.98734375 0.32835937 -23.3046875 -0.08203125 C-16.28632495 -3.76740573 -7.06550494 -3.27504408 0 0 Z " fill="#1CDEA9" transform="translate(306.4375,194.0625)"/>
<path d="M0 0 C0.73978088 0.23486115 1.47956177 0.46972229 2.24176025 0.71170044 C2.95346069 3.44537354 2.95346069 3.44537354 3.24176025 6.71170044 C1.91506958 8.91381836 1.91506958 8.91381836 -0.14544678 10.97293091 C-0.91019318 11.75328705 -1.67493958 12.53364319 -2.46286011 13.33764648 C-3.72669022 14.570811 -3.72669022 14.570811 -5.01605225 15.82888794 C-5.87125458 16.68604401 -6.72645691 17.54320007 -7.60757446 18.42633057 C-9.42023238 20.23498699 -11.24155141 22.0349982 -13.07073975 23.82693481 C-15.87250927 26.57617116 -18.64093879 29.3559575 -21.40667725 32.14138794 C-23.17040437 33.89330068 -24.93596978 35.6433651 -26.70355225 37.39138794 C-27.53396027 38.22564301 -28.36436829 39.05989807 -29.21994019 39.91943359 C-30.39542923 41.06159836 -30.39542923 41.06159836 -31.59466553 42.22683716 C-32.27940948 42.90157074 -32.96415344 43.57630432 -33.66964722 44.27148438 C-36.25598922 46.05493004 -37.67709522 46.15835089 -40.75823975 45.71170044 C-41.41823975 45.05170044 -42.07823975 44.39170044 -42.75823975 43.71170044 C-42.49337647 39.51112938 -41.04553611 37.48926002 -38.14398193 34.54812622 C-36.99708893 33.37263718 -36.99708893 33.37263718 -35.82702637 32.17340088 C-34.99479553 31.34299286 -34.1625647 30.51258484 -33.30511475 29.65701294 C-32.45274231 28.79607025 -31.60036987 27.93512756 -30.72216797 27.0480957 C-28.9181792 25.23262614 -27.10893226 23.4223686 -25.29486084 21.61697388 C-22.51517498 18.84361988 -19.76320305 16.04467062 -17.012146 13.24295044 C-15.25725823 11.48351799 -13.50079969 9.72565055 -11.74261475 7.96951294 C-10.91848083 7.12695953 -10.09434692 6.28440613 -9.24523926 5.4163208 C-8.46803528 4.6515744 -7.6908313 3.886828 -6.89007568 3.09890747 C-5.87200836 2.07895187 -5.87200836 2.07895187 -4.83337402 1.03839111 C-2.75823975 -0.28829956 -2.75823975 -0.28829956 0 0 Z " fill="#0A0892" transform="translate(388.75823974609375,221.28829956054688)"/>
<path d="M0 0 C0.90211212 0.23486115 1.80422424 0.46972229 2.7336731 0.71170044 C3.00203527 4.06344841 3.1611362 6.05915284 1.28672791 8.92054749 C0.60897812 9.60307083 -0.06877167 10.28559418 -0.76705933 10.98880005 C-1.53173019 11.77238388 -2.29640106 12.55596771 -3.08424377 13.36329651 C-4.34033195 14.60116661 -4.34033195 14.60116661 -5.62179565 15.86404419 C-6.90247673 17.1533358 -6.90247673 17.1533358 -8.20903015 18.46867371 C-10.01673445 20.28045918 -11.83203093 22.0846966 -13.65426636 23.88186646 C-16.44696193 26.64241449 -19.20620011 29.43351729 -21.96359253 32.22927856 C-23.72273926 33.9844612 -25.48374591 35.7377821 -27.24679565 37.48904419 C-28.07406662 38.32846054 -28.90133759 39.16787689 -29.75367737 40.0327301 C-30.53410904 40.79424881 -31.31454071 41.55576752 -32.11862183 42.34036255 C-32.80034958 43.01731674 -33.48207733 43.69427094 -34.1844635 44.39173889 C-36.2663269 45.71170044 -36.2663269 45.71170044 -38.96305847 45.48490906 C-41.2663269 44.71170044 -41.2663269 44.71170044 -42.2663269 43.71170044 C-42.63802123 40.65878903 -42.59377019 39.18655668 -40.82611084 36.62310791 C-39.81401047 35.59599197 -39.81401047 35.59599197 -38.78146362 34.54812622 C-37.63929886 33.37263718 -37.63929886 33.37263718 -36.47406006 32.17340088 C-35.63980499 31.34299286 -34.80554993 30.51258484 -33.9460144 29.65701294 C-33.09459869 28.79607025 -32.24318298 27.93512756 -31.3659668 27.0480957 C-29.56143337 25.23139303 -27.75035888 23.42116785 -25.93331909 21.61697388 C-23.15185491 18.84718426 -20.40386045 16.04696317 -17.6569519 13.24295044 C-15.90108283 11.48319666 -14.14333136 9.7253187 -12.3835144 7.96951294 C-11.15034988 6.70568283 -11.15034988 6.70568283 -9.89227295 5.4163208 C-8.72173874 4.2692012 -8.72173874 4.2692012 -7.52755737 3.09890747 C-6.84805023 2.41893707 -6.16854309 1.73896667 -5.46844482 1.03839111 C-3.2663269 -0.28829956 -3.2663269 -0.28829956 0 0 Z " fill="#0A0791" transform="translate(287.2663269042969,120.28829956054688)"/>
<path d="M0 0 C3.04581486 1.36113013 5.13839026 2.89330096 7.48339844 5.25634766 C8.14378113 5.91688141 8.80416382 6.57741516 9.48455811 7.25796509 C10.18574768 7.96947723 10.88693726 8.68098938 11.609375 9.4140625 C12.69958954 10.50852188 12.69958954 10.50852188 13.81182861 11.62509155 C16.12929198 13.9537388 18.4396995 16.28924826 20.75 18.625 C22.32115444 20.20618653 23.89276371 21.78692125 25.46484375 23.3671875 C29.31518653 27.2395669 33.15976117 31.11760171 37 35 C35.64062915 37.8605891 34.35479531 39.85927699 32 42 C28.95418514 40.63886987 26.86160974 39.10669904 24.51660156 36.74365234 C23.85621887 36.08311859 23.19583618 35.42258484 22.51544189 34.74203491 C21.81425232 34.03052277 21.11306274 33.31901062 20.390625 32.5859375 C19.66381531 31.85629791 18.93700562 31.12665833 18.18817139 30.37490845 C15.87070802 28.0462612 13.5603005 25.71075174 11.25 23.375 C9.67884556 21.79381347 8.10723629 20.21307875 6.53515625 18.6328125 C2.68481347 14.7604331 -1.15976117 10.88239829 -5 7 C-3.64062915 4.1394109 -2.35479531 2.14072301 0 0 Z " fill="#F5A53A" transform="translate(265,210)"/>
<path d="M0 0 C0.69762451 0.27666504 1.39524902 0.55333008 2.11401367 0.83837891 C2.79345703 3.10595703 2.79345703 3.10595703 3.11401367 5.83837891 C1.99902344 7.74267578 1.99902344 7.74267578 0.24291992 9.55712891 C-0.40660645 10.24291016 -1.05613281 10.92869141 -1.7253418 11.63525391 C-2.43835449 12.36228516 -3.15136719 13.08931641 -3.88598633 13.83837891 C-4.96130615 14.99080078 -4.96130615 14.99080078 -6.05834961 16.16650391 C-8.32499412 18.58795089 -10.63139161 20.96524103 -12.94848633 23.33837891 C-13.72514648 24.16080078 -14.50180664 24.98322266 -15.30200195 25.83056641 C-16.06319336 26.60658203 -16.82438477 27.38259766 -17.60864258 28.18212891 C-18.28677002 28.8853125 -18.96489746 29.58849609 -19.66357422 30.31298828 C-22.55510339 32.29763886 -24.45117927 32.19599005 -27.88598633 31.83837891 C-28.88598633 30.83837891 -28.88598633 30.83837891 -29.29296875 28.6640625 C-28.70061104 24.55131614 -26.21770672 22.43497154 -23.37426758 19.62744141 C-22.80902878 19.0550473 -22.24378998 18.4826532 -21.66142273 17.89291382 C-20.46460744 16.68832412 -19.26136766 15.4900882 -18.05224609 14.29785156 C-16.20296143 12.46780744 -14.38489209 10.61031578 -12.56762695 8.74853516 C-11.4007788 7.58139668 -10.23221429 6.41597109 -9.06176758 5.25244141 C-8.51885574 4.69424713 -7.97594391 4.13605286 -7.4165802 3.5609436 C-3.54048028 -0.19827408 -3.54048028 -0.19827408 0 0 Z " fill="#0C0A93" transform="translate(376.885986328125,209.16162109375)"/>
<path d="M0 0 C0.83837891 2.11401367 0.83837891 2.11401367 1 5 C-0.73319012 7.33400108 -2.35178998 9.16997035 -4.4140625 11.17578125 C-4.98071625 11.74580368 -5.54737 12.31582611 -6.13119507 12.90312195 C-7.33296413 14.10459208 -8.54223091 15.29860227 -9.75830078 16.4855957 C-11.61663337 18.30431173 -13.44390563 20.15047227 -15.26953125 22.00195312 C-16.44096167 23.16582315 -17.61408526 24.327992 -18.7890625 25.48828125 C-19.33511139 26.04131424 -19.88116028 26.59434723 -20.4437561 27.16413879 C-22.8789797 29.51101285 -24.42428796 30.91708036 -27.82568359 31.40698242 C-30 31 -30 31 -31 30 C-31.38623047 27.30004883 -31.38623047 27.30004883 -31 24 C-29.32626296 21.78898847 -27.80761519 20.07989275 -25.8203125 18.19921875 C-25.29235077 17.67737503 -24.76438904 17.15553131 -24.22042847 16.61787415 C-22.53553008 14.95985069 -20.83066662 13.32412201 -19.125 11.6875 C-17.98436374 10.56839434 -16.84502493 9.44796461 -15.70703125 8.32617188 C-5.80589514 -1.37508043 -5.80589514 -1.37508043 0 0 Z " fill="#0C0A93" transform="translate(302,133)"/>
<path d="M0 0 C2.28150246 1.60648429 4.16628469 2.93995882 6 5 C6.2890625 7.83984375 6.2890625 7.83984375 5.625 10.9375 C5.39296875 12.06414062 5.1609375 13.19078125 4.921875 14.3515625 C3.42398483 20.27965326 1.80471374 26.1565822 0 32 C-1.73417089 30.53862003 -3.45911765 29.06850968 -5.171875 27.58203125 C-6.59806059 26.34783218 -8.04513751 25.13776156 -9.5 23.9375 C-11 22 -11 22 -10.91015625 19.9296875 C-9.57319144 15.6261527 -7.27350021 12.02085385 -4.9375 8.1875 C-4.46505859 7.39923828 -3.99261719 6.61097656 -3.50585938 5.79882812 C-2.34368685 3.86187392 -1.17495583 1.92921705 0 0 Z " fill="#F7F6FB" transform="translate(285,254)"/>
<path d="M0 0 C2.25 2.5625 2.25 2.5625 4 5 C0.92853079 6.87438149 -2.15883525 8.72081186 -5.25 10.5625 C-6.12269531 11.09552734 -6.99539062 11.62855469 -7.89453125 12.17773438 C-8.73886719 12.67724609 -9.58320313 13.17675781 -10.453125 13.69140625 C-11.22817383 14.15748291 -12.00322266 14.62355957 -12.80175781 15.10375977 C-15.40872053 16.1666385 -16.42841742 16.06744937 -19 15 C-21.359375 12.93359375 -21.359375 12.93359375 -23.75 10.4375 C-24.94882813 9.19806641 -24.94882813 9.19806641 -26.171875 7.93359375 C-26.77515625 7.29550781 -27.3784375 6.65742188 -28 6 C-24.59214138 2.59214138 -19.72846523 2.3390669 -15.125 1.3125 C-14.11824219 1.07466797 -13.11148438 0.83683594 -12.07421875 0.59179688 C-11.10355469 0.37201172 -10.13289063 0.15222656 -9.1328125 -0.07421875 C-8.24480957 -0.27619873 -7.35680664 -0.47817871 -6.44189453 -0.6862793 C-3.89227708 -1.01383963 -2.38185541 -0.93976882 0 0 Z " fill="#F7F6FB" transform="translate(254,222)"/>
<path d="M0 0 C0.57145752 0.36891357 1.14291504 0.73782715 1.73168945 1.11791992 C1.73168945 5.11791992 1.73168945 5.11791992 0.4465332 6.85717773 C-0.13999023 7.42275391 -0.72651367 7.98833008 -1.33081055 8.57104492 C-1.96245117 9.18979492 -2.5940918 9.80854492 -3.24487305 10.44604492 C-3.91260742 11.08026367 -4.5803418 11.71448242 -5.26831055 12.36791992 C-5.93604492 13.01760742 -6.6037793 13.66729492 -7.29174805 14.33666992 C-8.94199073 15.93976281 -10.60082845 17.53279827 -12.26831055 19.11791992 C-16.03319096 17.39637204 -18.41894952 15.12557878 -21.26831055 12.11791992 C-19.68862981 7.37887772 -15.67598108 6.14269485 -11.45581055 3.80541992 C-10.63532227 3.32524414 -9.81483398 2.84506836 -8.96948242 2.3503418 C-7.77742188 1.68421875 -7.77742188 1.68421875 -6.5612793 1.00463867 C-5.83448975 0.59431396 -5.1077002 0.18398926 -4.35888672 -0.23876953 C-2.26831055 -0.88208008 -2.26831055 -0.88208008 0 0 Z " fill="#F9F9FC" transform="translate(265.268310546875,233.882080078125)"/>
<path d="M0 0 C1.9375 0.8125 1.9375 0.8125 4 2 C5 5 5 5 4.10375977 7.0847168 C3.40464478 8.25514526 3.40464478 8.25514526 2.69140625 9.44921875 C1.94213867 10.72055664 1.94213867 10.72055664 1.17773438 12.01757812 C0.64470703 12.89865234 0.11167969 13.77972656 -0.4375 14.6875 C-0.96666016 15.58017578 -1.49582031 16.47285156 -2.04101562 17.39257812 C-3.35167917 19.60063292 -4.6715699 21.80260395 -6 24 C-9.76488042 22.27845212 -12.15063897 20.00765886 -15 17 C-13.67879172 14.06769807 -12.25361803 12.01335101 -9.9609375 9.765625 C-9.38085938 9.19199219 -8.80078125 8.61835938 -8.203125 8.02734375 C-7.59984375 7.44082031 -6.9965625 6.85429687 -6.375 6.25 C-5.76398438 5.64800781 -5.15296875 5.04601562 -4.5234375 4.42578125 C-3.02011376 2.94594695 -1.51065144 1.47235324 0 0 Z " fill="#FAFAFD" transform="translate(274,244)"/>
<path d="M0 0 C2.171875 0.9140625 2.171875 0.9140625 3.171875 1.9140625 C3.5625 4.61328125 3.5625 4.61328125 3.171875 7.9140625 C1.46315585 10.1442356 -0.05139996 11.84681371 -2.078125 13.7265625 C-2.56925781 14.21576172 -3.06039063 14.70496094 -3.56640625 15.20898438 C-8.26907161 19.74235378 -8.26907161 19.74235378 -11.828125 19.9140625 C-14.078125 18.4765625 -14.078125 18.4765625 -15.828125 16.9140625 C-15.47435392 11.62715021 -12.65965181 9.07795208 -9.078125 5.5390625 C-8.5521875 4.98089844 -8.02625 4.42273438 -7.484375 3.84765625 C-3.53894758 -0.10753708 -3.53894758 -0.10753708 0 0 Z " fill="#070390" transform="translate(311.828125,144.0859375)"/>
<path d="M0 0 C0.85851562 0.28101563 1.71703125 0.56203125 2.6015625 0.8515625 C3.484375 2.921875 3.484375 2.921875 3.6015625 5.8515625 C1.90961074 8.49200895 -0.27123799 10.56061744 -2.5234375 12.7265625 C-3.10609375 13.33242187 -3.68875 13.93828125 -4.2890625 14.5625 C-5.92911876 16.18049272 -7.46179407 17.60304312 -9.3984375 18.8515625 C-12.0674403 18.80065509 -13.48887652 18.76112348 -15.3984375 16.8515625 C-15.8125 14.6875 -15.8125 14.6875 -15.3984375 11.8515625 C-13.58350061 9.48450889 -11.87989782 7.54318432 -9.7734375 5.4765625 C-9.25136719 4.91839844 -8.72929687 4.36023438 -8.19140625 3.78515625 C-5.35877653 0.95252653 -4.08531077 -0.17843886 0 0 Z " fill="#0B0A93" transform="translate(364.3984375,197.1484375)"/>
</svg>
